<svg width="24" height="24" viewBox="0 0 24 24" fill="none" xmlns="http://www.w3.org/2000/svg">
<path d="M4.31922 7.44019H5.03922V8.88019H1.67922C1.48962 8.88019 1.31682 8.99299 1.24002 9.16579C1.16322 9.34099 1.19682 9.54259 1.32402 9.68419C2.52402 11.0042 2.52402 12.9962 1.32402 14.3162C1.19682 14.4578 1.16322 14.6594 1.24002 14.8346C1.31682 15.0074 1.48962 15.1202 1.67922 15.1202H19.6792C21.4 15.1202 22.7992 13.721 22.7992 12.0002C22.7992 10.2794 21.4 8.88019 19.6792 8.88019H9.83922V7.44019H22.3192C22.5088 7.44019 22.6816 7.32739 22.7584 7.15459C22.8352 6.97939 22.8016 6.77779 22.6744 6.63619C21.4744 5.3162 21.4744 3.3242 22.6744 2.0042C22.8016 1.8626 22.8352 1.661 22.7584 1.4858C22.7206 1.4009 22.6589 1.32878 22.581 1.2781C22.5031 1.22743 22.4122 1.20037 22.3192 1.2002H4.31922C2.59842 1.2002 1.19922 2.5994 1.19922 4.32019C1.19922 6.041 2.59842 7.44019 4.31922 7.44019ZM19.6792 9.84019C20.8696 9.84019 21.8392 10.8098 21.8392 12.0002C21.8392 13.1906 20.8696 14.1602 19.6792 14.1602H2.61762C2.99046 13.5013 3.18641 12.7572 3.18641 12.0002C3.18641 11.2432 2.99046 10.499 2.61762 9.84019H5.03922V11.7602C5.03922 11.8493 5.06405 11.9367 5.11091 12.0125C5.15778 12.0884 5.22483 12.1497 5.30456 12.1895C5.38429 12.2294 5.47355 12.2463 5.56233 12.2383C5.65111 12.2302 5.73591 12.1977 5.80722 12.1442L7.43922 10.9202L9.07122 12.1442C9.15522 12.2066 9.25842 12.2402 9.35923 12.2402C9.48653 12.2402 9.60862 12.1896 9.69864 12.0996C9.78865 12.0096 9.83922 11.8875 9.83922 11.7602V9.84019H19.6792ZM5.99922 10.8002V5.04019H8.87922V10.8002L7.72722 9.9362C7.64082 9.8714 7.54002 9.84019 7.43922 9.84019C7.33842 9.84019 7.23762 9.8714 7.15122 9.9362L5.99922 10.8002ZM4.31922 2.1602H21.3808C21.008 2.81904 20.812 3.56317 20.812 4.32019C20.812 5.07722 21.008 5.82135 21.3808 6.4802H9.83922V4.56019C9.83922 4.2962 9.62323 4.08019 9.35923 4.08019H5.51922C5.25522 4.08019 5.03922 4.2962 5.03922 4.56019V6.4802H4.31922C3.12882 6.4802 2.15922 5.51059 2.15922 4.32019C2.15922 3.1298 3.12882 2.1602 4.31922 2.1602ZM22.7584 16.8458C22.7206 16.7609 22.6589 16.6888 22.581 16.6381C22.5031 16.5874 22.4122 16.5604 22.3192 16.5602H4.31922C2.59842 16.5602 1.19922 17.9594 1.19922 19.6802C1.19922 21.401 2.59842 22.8002 4.31922 22.8002H22.3192C22.5088 22.8002 22.6816 22.6874 22.7584 22.5146C22.8352 22.3394 22.8016 22.1378 22.6744 21.9962C21.4744 20.6762 21.4744 18.6842 22.6744 17.3642C22.8016 17.2226 22.8352 17.021 22.7584 16.8458ZM21.3808 21.8402H4.31922C3.12882 21.8402 2.15922 20.8706 2.15922 19.6802C2.15922 18.4898 3.12882 17.5202 4.31922 17.5202H21.3808C21.008 18.179 20.812 18.9232 20.812 19.6802C20.812 20.4372 21.008 21.1813 21.3808 21.8402Z" fill="#F1F1F3"/>
</svg>
