<svg width="40" height="40" viewBox="0 0 40 40" fill="none" xmlns="http://www.w3.org/2000/svg">
<path d="M19.9994 2.49609C10.3477 2.49609 2.49609 10.348 2.49609 19.9992C2.49609 29.6508 10.3477 37.503 19.9994 37.503C29.6504 37.503 37.5026 29.6508 37.5026 19.9992C37.5026 10.348 29.6504 2.49609 19.9994 2.49609ZM24.9463 13.5455C24.9463 13.6283 24.9133 13.7078 24.8547 13.7664C24.7961 13.825 24.7167 13.858 24.6338 13.858L22.6441 13.8592C21.3312 13.8592 21.0912 14.3705 21.0912 15.3773V17.4661H24.5038C24.5935 17.4661 24.6791 17.5048 24.7381 17.5723C24.7972 17.6398 24.8247 17.7295 24.8138 17.8186L24.3278 21.5789C24.3181 21.6542 24.2813 21.7235 24.2242 21.7736C24.1672 21.8238 24.0938 21.8514 24.0178 21.8514H21.0912V31.1886C21.0912 31.2715 21.0583 31.351 20.9997 31.4096C20.9411 31.4682 20.8616 31.5011 20.7787 31.5011H16.8962C16.8133 31.5011 16.7338 31.4682 16.6752 31.4096C16.6166 31.351 16.5837 31.2715 16.5837 31.1886V21.8514H13.6477C13.5649 21.8514 13.4854 21.8185 13.4268 21.7599C13.3682 21.7013 13.3352 21.6218 13.3352 21.5389V17.7786C13.3352 17.6957 13.3682 17.6162 13.4268 17.5576C13.4854 17.499 13.5649 17.4661 13.6477 17.4661H16.5837V15.0052C16.5837 11.7458 18.5562 9.72141 21.7322 9.72141C23.0975 9.72141 24.3041 9.82297 24.6747 9.87203C24.7498 9.88196 24.8188 9.91883 24.8687 9.9758C24.9187 10.0328 24.9462 10.1059 24.9463 10.1817V13.5455Z" fill="#F1F1F3"/>
</svg>
