<svg width="40" height="40" viewBox="0 0 40 40" fill="none" xmlns="http://www.w3.org/2000/svg">
<path d="M20.0007 3.74414C16.0432 3.7443 12.2148 5.15266 9.20064 7.71722C6.18648 10.2818 4.1832 13.8352 3.54925 17.7416C2.91531 21.648 3.69206 25.6526 5.74053 29.0387C7.789 32.4249 10.9755 34.9716 14.7299 36.2233C15.5632 36.3692 15.8757 35.8692 15.8757 35.4316C15.8757 35.0358 15.8549 33.7233 15.8549 32.3275C11.6674 33.0983 10.584 31.3067 10.2507 30.3692C9.88082 29.4574 9.29449 28.6494 8.54236 28.015C7.95903 27.7025 7.1257 26.9316 8.52151 26.9108C9.05449 26.9687 9.56567 27.1541 10.0117 27.4515C10.4578 27.7489 10.8256 28.1494 11.084 28.6191C11.312 29.0286 11.6185 29.3891 11.986 29.68C12.3535 29.9708 12.7748 30.1862 13.2257 30.314C13.6767 30.4417 14.1484 30.4792 14.6138 30.4243C15.0793 30.3694 15.5293 30.2232 15.9382 29.9941C16.0103 29.1468 16.3879 28.3546 17.0007 27.765C13.2924 27.3484 9.41736 25.9108 9.41736 19.5359C9.39394 17.8794 10.0052 16.2768 11.1257 15.0567C10.6162 13.6171 10.6758 12.0372 11.2924 10.64C11.2924 10.64 12.6881 10.2025 15.8757 12.3484C18.6028 11.5983 21.4819 11.5983 24.209 12.3484C27.3965 10.1817 28.7924 10.64 28.7924 10.64C29.409 12.0371 29.4686 13.6171 28.959 15.0567C30.0829 16.2747 30.6947 17.8787 30.6674 19.5359C30.6674 25.9316 26.7715 27.3484 23.0632 27.765C23.4609 28.1682 23.7673 28.6522 23.9614 29.1842C24.1555 29.7162 24.2329 30.2838 24.1882 30.8484C24.1882 33.0776 24.1673 34.8692 24.1673 35.4317C24.1673 35.8692 24.4798 36.39 25.3132 36.2234C29.061 34.9615 32.2383 32.4088 34.2781 29.0209C36.3178 25.633 37.0872 21.6305 36.4488 17.7279C35.8105 13.8252 33.806 10.2764 30.7931 7.71499C27.7803 5.15356 23.9552 3.7462 20.0007 3.74414Z" fill="#F1F1F3"/>
</svg>
