<svg width="24" height="24" viewBox="0 0 24 24" fill="none" xmlns="http://www.w3.org/2000/svg">
<path d="M18.2992 14.2L16.1492 15.6C13.5992 17.2 10.4492 17.2 7.89922 15.6L5.74922 14.2C5.24922 13.9 4.94922 13.35 4.94922 12.75V9.75H19.0992V12.75C19.0492 13.35 18.7492 13.9 18.2992 14.2Z" fill="#C7C7D1"/>
<path d="M19.0492 9.75H4.94922V12.05L10.2992 15.15C11.3492 15.8 12.6992 15.8 13.7492 15.15L19.0992 12.05V9.75H19.0492Z" fill="#F1F1F3"/>
<path d="M18.2992 14.2L16.1492 15.6C13.5992 17.2 10.4492 17.2 7.89922 15.6L5.74922 14.2C5.24922 13.9 4.94922 13.35 4.94922 12.75V9.75H19.0992V12.75C19.0492 13.35 18.7492 13.9 18.2992 14.2Z" stroke="#F1F1F3" stroke-miterlimit="10" stroke-linecap="round" stroke-linejoin="round"/>
<path opacity="0.15" d="M12 22.8997C15.5899 22.8997 18.5 22.5191 18.5 22.0497C18.5 21.5803 15.5899 21.1997 12 21.1997C8.41015 21.1997 5.5 21.5803 5.5 22.0497C5.5 22.5191 8.41015 22.8997 12 22.8997Z" fill="#F1F1F3"/>
<path d="M2.84957 8.9999L10.2496 13.3499C11.2996 13.9999 12.6496 13.9999 13.6996 13.3499L21.1496 8.9999C22.5496 8.1999 22.4996 6.1499 21.0496 5.3999L13.5996 1.4999C12.5996 0.949902 11.3996 0.949902 10.3996 1.4999L2.94957 5.4499C1.49957 6.1999 1.44957 8.1999 2.84957 8.9999Z" fill="#C7C7D1"/>
<path d="M2.94878 7.7499L10.3988 4.7499C11.3988 4.3499 12.5988 4.3499 13.5988 4.7499L21.0488 7.7499C21.3488 7.8792 21.6206 8.06606 21.8488 8.2999C22.4488 7.3499 22.1488 5.9999 21.0488 5.3999L13.5988 1.4999C12.5988 0.949902 11.3988 0.949902 10.3988 1.4999L2.94878 5.4499C1.84878 6.0499 1.59878 7.3999 2.14878 8.3499C2.29878 8.0999 2.59878 7.8999 2.94878 7.7499Z" fill="#ACACB9"/>
<path d="M2.84957 8.9999L10.2496 13.3499C11.2996 13.9999 12.6496 13.9999 13.6996 13.3499L21.1496 8.9999C22.5496 8.1999 22.4996 6.1499 21.0496 5.3999L13.5996 1.4999C12.5996 0.949902 11.3996 0.949902 10.3996 1.4999L2.94957 5.3999C1.49957 6.1499 1.44957 8.1999 2.84957 8.9999Z" stroke="#F1F1F3" stroke-miterlimit="10" stroke-linecap="round" stroke-linejoin="round"/>
<path d="M11.1504 7.5L6.15039 10.75V17.95" stroke="#F1F1F3" stroke-miterlimit="10" stroke-linecap="round" stroke-linejoin="round"/>
<path d="M5.85043 19L4.95043 21.65C4.85043 21.95 4.95043 22.25 5.20043 22.4C5.45043 22.55 5.80043 22.75 6.20043 22.75C6.60043 22.75 6.95043 22.6 7.20043 22.4C7.45043 22.25 7.50043 21.9 7.45043 21.65L6.50043 19H5.85043Z" fill="#5DD600" stroke="#F1F1F3" stroke-miterlimit="10" stroke-linecap="round" stroke-linejoin="round"/>
<path d="M6.14961 20.0497C6.72951 20.0497 7.19961 19.5796 7.19961 18.9997C7.19961 18.4198 6.72951 17.9497 6.14961 17.9497C5.56971 17.9497 5.09961 18.4198 5.09961 18.9997C5.09961 19.5796 5.56971 20.0497 6.14961 20.0497Z" fill="#5DD600" stroke="#F1F1F3" stroke-miterlimit="10" stroke-linecap="round" stroke-linejoin="round"/>
<path d="M12.0004 7.65C12.746 7.65 13.3504 7.3366 13.3504 6.95C13.3504 6.5634 12.746 6.25 12.0004 6.25C11.2548 6.25 10.6504 6.5634 10.6504 6.95C10.6504 7.3366 11.2548 7.65 12.0004 7.65Z" fill="#5DD600" stroke="#F1F1F3" stroke-miterlimit="10" stroke-linecap="round" stroke-linejoin="round"/>
</svg>
