<svg width="26" height="27" viewBox="0 0 26 27" fill="none" xmlns="http://www.w3.org/2000/svg">
<g clip-path="url(#clip0_918_2777)">
<path d="M26 25.4437V15.8455C26 10.7024 23.2505 8.30932 19.5845 8.30932C16.6262 8.30932 15.3002 9.93418 14.5616 11.0747V8.70275H8.98787C9.06181 10.2741 8.98787 25.4437 8.98787 25.4437H14.5616V16.0945C14.5616 15.5956 14.5974 15.0951 14.7453 14.7382C15.1474 13.738 16.0648 12.7028 17.6036 12.7028C19.6211 12.7028 20.4271 14.2377 20.4271 16.488V25.4446L26 25.4437ZM3.11594 6.41757C5.05863 6.41757 6.27006 5.13099 6.27006 3.52397C6.23431 1.88208 5.05944 0.632812 3.15331 0.632812C1.24719 0.632812 0 1.88127 0 3.52397C0 5.13099 1.20981 6.41757 3.081 6.41757H3.11594ZM5.90281 25.4437V8.70275H0.329875V25.4437H5.90281Z" fill="#8B03FB"/>
</g>
<defs>
<clipPath id="clip0_918_2777">
<rect width="26" height="25.9588" fill="white" transform="translate(0 0.0625)"/>
</clipPath>
</defs>
</svg>
