<svg width="40" height="40" viewBox="0 0 40 40" fill="none" xmlns="http://www.w3.org/2000/svg">
<path d="M34.1169 3.33324H5.88359C5.56622 3.32883 5.2511 3.38699 4.9562 3.50438C4.66131 3.62177 4.39243 3.79611 4.16492 4.01743C3.93741 4.23875 3.75573 4.50271 3.63025 4.79426C3.50476 5.0858 3.43794 5.3992 3.43359 5.71657V34.2832C3.43794 34.6006 3.50476 34.914 3.63025 35.2056C3.75573 35.4971 3.93741 35.7611 4.16492 35.9824C4.39243 36.2037 4.66131 36.378 4.9562 36.4954C5.2511 36.6128 5.56622 36.671 5.88359 36.6666H34.1169C34.4343 36.671 34.7494 36.6128 35.0443 36.4954C35.3392 36.378 35.6081 36.2037 35.8356 35.9824C36.0631 35.7611 36.2448 35.4971 36.3703 35.2056C36.4958 34.914 36.5626 34.6006 36.5669 34.2832V5.71657C36.5626 5.3992 36.4958 5.0858 36.3703 4.79426C36.2448 4.50271 36.0631 4.23875 35.8356 4.01743C35.6081 3.79611 35.3392 3.62177 35.0443 3.50438C34.7494 3.38699 34.4343 3.32883 34.1169 3.33324ZM13.4836 31.2332H8.48359V16.2332H13.4836V31.2332ZM10.9836 14.1332C10.294 14.1332 9.63271 13.8593 9.14512 13.3717C8.65752 12.8841 8.38359 12.2228 8.38359 11.5332C8.38359 10.8437 8.65752 10.1824 9.14512 9.69476C9.63271 9.20717 10.294 8.93324 10.9836 8.93324C11.3498 8.89172 11.7206 8.928 12.0717 9.03971C12.4229 9.15143 12.7465 9.33606 13.0214 9.58151C13.2962 9.82696 13.5161 10.1277 13.6667 10.464C13.8173 10.8004 13.8951 11.1647 13.8951 11.5332C13.8951 11.9017 13.8173 12.2661 13.6667 12.6024C13.5161 12.9388 13.2962 13.2395 13.0214 13.485C12.7465 13.7304 12.4229 13.9151 12.0717 14.0268C11.7206 14.1385 11.3498 14.1748 10.9836 14.1332ZM31.5169 31.2332H26.5169V23.1832C26.5169 21.1666 25.8003 19.8499 23.9836 19.8499C23.4214 19.854 22.8739 20.0304 22.415 20.3552C21.9561 20.68 21.6077 21.1377 21.4169 21.6666C21.2865 22.0583 21.23 22.4709 21.2503 22.8832V31.2166H16.2503C16.2503 31.2166 16.2503 17.5832 16.2503 16.2166H21.2503V18.3332C21.7045 17.5451 22.3651 16.8958 23.161 16.4552C23.9569 16.0147 24.8579 15.7997 25.7669 15.8332C29.1003 15.8332 31.5169 17.9832 31.5169 22.5999V31.2332Z" fill="#F1F1F3"/>
</svg>
