<svg width="24" height="24" viewBox="0 0 24 24" fill="none" xmlns="http://www.w3.org/2000/svg">
<g clip-path="url(#clip0_918_3047)">
<path d="M12 9.72021C14.4853 9.72021 16.5 7.7055 16.5 5.22021C16.5 2.73493 14.4853 0.720215 12 0.720215C9.51472 0.720215 7.5 2.73493 7.5 5.22021C7.5 7.7055 9.51472 9.72021 12 9.72021Z" fill="#F1F1F3"/>
<path d="M23.1443 20.1304C22.6775 18.0051 21.6072 16.0598 20.0618 14.5279C19.6868 14.1515 19.2803 13.8078 18.8468 13.5004C16.8729 12.0197 14.4668 11.2292 11.9993 11.2504C8.98218 11.235 6.08131 12.4131 3.92933 14.5279C2.38396 16.0598 1.31361 18.0051 0.846829 20.1304C0.765695 20.5062 0.770078 20.8955 0.859653 21.2693C0.949229 21.6432 1.12171 21.9922 1.36433 22.2904C1.6156 22.5951 1.93201 22.8395 2.29026 23.0056C2.6485 23.1718 3.03946 23.2554 3.43433 23.2504H20.5643C20.9604 23.2507 21.3514 23.1618 21.7084 22.9904C22.0654 22.8191 22.3793 22.5696 22.6268 22.2604C22.8651 21.9657 23.0351 21.6218 23.1246 21.2535C23.214 20.8852 23.2208 20.5016 23.1443 20.1304Z" fill="#F1F1F3"/>
</g>
<defs>
<clipPath id="clip0_918_3047">
<rect width="24" height="24" fill="white"/>
</clipPath>
</defs>
</svg>
