<svg width="24" height="24" viewBox="0 0 24 24" fill="none" xmlns="http://www.w3.org/2000/svg">
<g clip-path="url(#clip0_918_3067)">
<path d="M12 12C13.1867 12 14.3467 11.6481 15.3334 10.9888C16.3201 10.3295 17.0892 9.39246 17.5433 8.2961C17.9974 7.19975 18.1162 5.99335 17.8847 4.82946C17.6532 3.66558 17.0818 2.59648 16.2426 1.75736C15.4035 0.918247 14.3344 0.346802 13.1705 0.115291C12.0067 -0.11622 10.8003 0.00259969 9.7039 0.456725C8.60754 0.910851 7.67047 1.67989 7.01118 2.66658C6.35189 3.65328 6 4.81331 6 6C6.00179 7.59075 6.6345 9.11584 7.75933 10.2407C8.88416 11.3655 10.4092 11.9982 12 12ZM12 0.750003C13.1116 0.750136 14.1945 1.10301 15.0928 1.75783C15.9911 2.41264 16.6585 3.33562 16.9988 4.39388L15.9801 4.90313C15.8321 4.54826 15.5786 4.24747 15.2539 4.04153C14.9292 3.83559 14.5491 3.73446 14.165 3.75186C13.7809 3.76926 13.4115 3.90434 13.1067 4.13878C12.802 4.37323 12.5767 4.69571 12.4614 5.0625H11.5388C11.4235 4.69571 11.1982 4.37323 10.8935 4.13878C10.5887 3.90434 10.2193 3.76926 9.83519 3.75186C9.4511 3.73446 9.07095 3.83559 8.74627 4.04153C8.4216 4.24747 8.16809 4.54826 8.02012 4.90313L7.00144 4.39388C7.34173 3.33565 8.00903 2.4127 8.90728 1.75788C9.80554 1.10307 10.8884 0.750176 12 0.750003ZM6.82087 5.14219L7.87725 5.67038C7.88839 6.14739 8.08105 6.6022 8.41596 6.94205C8.75087 7.28191 9.20281 7.48122 9.67961 7.49935C10.1564 7.51748 10.6222 7.35305 10.9819 7.03961C11.3417 6.72616 11.5683 6.2873 11.6156 5.8125H12.3848C12.4324 6.287 12.6592 6.72546 13.0189 7.03859C13.3786 7.35172 13.8441 7.51595 14.3206 7.49783C14.7972 7.47972 15.2489 7.28061 15.5837 6.94108C15.9186 6.60154 16.1114 6.14712 16.1229 5.67038L17.1793 5.14219C17.3041 5.89408 17.2637 6.66414 17.0609 7.39885C16.8581 8.13356 16.4978 8.8153 16.0049 9.3967C15.5121 9.9781 14.8986 10.4452 14.207 10.7656C13.5154 11.086 12.7624 11.2519 12.0002 11.2519C11.238 11.2519 10.485 11.086 9.79338 10.7656C9.1018 10.4452 8.48827 9.9781 7.99543 9.3967C7.50259 8.8153 7.14224 8.13356 6.93944 7.39885C6.73664 6.66414 6.69606 5.89408 6.82087 5.14219Z" fill="#F1F1F3"/>
<path d="M12 10.3108C12.4463 10.3127 12.8759 10.1412 13.1981 9.83244C13.2697 9.76332 13.3109 9.66861 13.3126 9.56913C13.3143 9.46965 13.2764 9.37357 13.2073 9.30201C13.1382 9.23045 13.0435 9.18928 12.944 9.18756C12.8445 9.18583 12.7484 9.2237 12.6769 9.29282C12.4943 9.46639 12.2519 9.56318 12 9.56318C11.7481 9.56318 11.5057 9.46639 11.3231 9.29282C11.2516 9.2237 11.1555 9.18583 11.056 9.18756C10.9565 9.18928 10.8618 9.23045 10.7927 9.30201C10.7236 9.37357 10.6857 9.46965 10.6874 9.56913C10.6891 9.66861 10.7303 9.76332 10.8019 9.83244C11.1241 10.1412 11.5537 10.3126 12 10.3106V10.3108ZM11.1919 18.1025L11.6332 14.5288C11.7452 14.5919 11.8715 14.6252 12 14.6252C12.1285 14.6252 12.2548 14.5919 12.3668 14.5288L12.8081 18.1014C13.0446 18.0014 13.286 17.9135 13.5315 17.8381L13.0725 14.1223L13.1248 14.0923C13.267 14.0102 13.3784 13.8837 13.4418 13.7322C13.5052 13.5808 13.5172 13.4127 13.4758 13.2538L13.3114 12.6211C13.0641 12.6697 12.8144 12.7043 12.5632 12.7248L12.75 13.4424L12 13.8751L11.25 13.4424L11.4366 12.7248C11.1854 12.7043 10.9357 12.6697 10.6884 12.6211L10.5242 13.2538C10.4829 13.4126 10.4948 13.5807 10.5582 13.7321C10.6215 13.8835 10.7328 14.01 10.875 14.0921L10.9275 14.1223L10.4636 17.8766C10.7124 17.9302 10.956 18.0058 11.1915 18.1025H11.1919ZM23.6687 22.559L18.1849 18.869C18.075 18.7951 17.9476 18.7515 17.8155 18.7428C17.4949 18.7216 17.1105 18.6553 16.7034 18.5849C16.1075 18.4644 15.5025 18.3942 14.8948 18.3751C14.5757 18.3703 14.2574 18.4099 13.9493 18.4929C13.2523 18.6825 12.593 18.9902 12 19.4026C11.6795 19.1776 11.3379 18.9843 10.98 18.8255C10.3887 18.5852 9.75358 18.4718 9.11569 18.4927C8.48141 18.5051 7.84837 18.554 7.21969 18.6389C6.85069 18.6817 6.50231 18.722 6.18469 18.7428C6.05258 18.7515 5.92514 18.7951 5.81531 18.869L0.331312 22.559C0.229314 22.6276 0.14575 22.7203 0.087976 22.8288C0.0302023 22.9373 -9.48968e-06 23.0584 2.23593e-09 23.1813V23.2501C9.26034e-06 23.3742 0.0308021 23.4963 0.0896191 23.6056C0.148436 23.7149 0.23344 23.8078 0.337012 23.8761C0.440585 23.9445 0.559491 23.986 0.683074 23.9971C0.806657 24.0082 0.931057 23.9884 1.04513 23.9396C1.07719 23.9259 4.32806 22.5539 7.46137 22.5539C9.20719 22.5541 10.5664 22.9768 11.5009 23.81C11.6383 23.9325 11.8159 24.0002 12 24.0002C12.1841 24.0002 12.3617 23.9325 12.4991 23.81C13.4338 22.9766 14.7928 22.5539 16.5384 22.5541C19.6815 22.5541 22.9226 23.9257 22.9549 23.9398C23.069 23.9886 23.1934 24.0083 23.317 23.9973C23.4406 23.9862 23.5595 23.9446 23.6631 23.8763C23.7666 23.8079 23.8516 23.7149 23.9104 23.6057C23.9693 23.4964 24 23.3742 24 23.2501V23.1813C24 23.0584 23.9698 22.9373 23.912 22.8288C23.8542 22.7203 23.7707 22.6276 23.6687 22.559ZM23.25 23.2501C23.25 23.2501 19.8716 21.8043 16.5384 21.8041C14.8716 21.8041 13.2165 22.1654 12 23.2501C10.7837 22.1656 9.12806 21.8041 7.46156 21.8041C4.128 21.8041 0.75 23.2501 0.75 23.2501V23.1813L6.23381 19.4913C7.10569 19.4341 8.15419 19.2427 9.11569 19.2427C9.64821 19.2236 10.1789 19.3147 10.6746 19.5104C11.1578 19.7226 11.605 20.0089 12 20.3589C12.6205 19.8172 13.3575 19.4257 14.1538 19.2148C14.3956 19.1511 14.645 19.1209 14.895 19.1251C15.8213 19.1251 16.9249 19.4356 17.7664 19.4913L23.25 23.1813V23.2501Z" fill="#F1F1F3"/>
<path d="M5.39706 18.2462C5.61677 18.0987 5.87155 18.0118 6.13562 17.9944C6.43469 17.9747 6.77425 17.9353 7.13369 17.8937C7.7909 17.805 8.4527 17.7546 9.11575 17.7426C9.32762 17.7426 9.52731 17.7536 9.72137 17.7699L10.1329 14.4379C9.9687 14.2541 9.85227 14.0327 9.79393 13.7932C9.73559 13.5537 9.73713 13.3035 9.79844 13.0648L9.9625 12.4335C9.06946 12.1493 8.24531 11.6824 7.54244 11.0625H6.75006C5.54937 11.0716 4.4013 11.5565 3.55769 12.4109C2.71408 13.2654 2.24382 14.4195 2.25006 15.6202V20.3638L5.39706 18.2462ZM16.4569 11.0625C15.7547 11.6825 14.9309 12.1493 14.0382 12.4331L14.2013 13.065C14.2631 13.3036 14.265 13.5537 14.2067 13.7931C14.1485 14.0326 14.032 14.2539 13.8676 14.4375L14.2669 17.6681C14.475 17.6389 14.6849 17.6244 14.8951 17.625C15.5452 17.6432 16.1926 17.7173 16.8301 17.8463C17.2182 17.9119 17.5838 17.9756 17.8651 17.9944C18.1294 18.0119 18.3843 18.0993 18.6038 18.2475L21.7501 20.3644V15.6206C21.7564 14.4199 21.2862 13.2656 20.4426 12.4111C19.5989 11.5566 18.4508 11.0716 17.2501 11.0625H16.4569ZM17.6251 15.375C17.7244 15.3753 17.8196 15.4149 17.8899 15.4852C17.9602 15.5554 17.9998 15.6506 18.0001 15.75V16.125H19.8751C19.9745 16.125 20.0699 16.1645 20.1402 16.2348C20.2106 16.3052 20.2501 16.4005 20.2501 16.5C20.2501 16.5995 20.2106 16.6948 20.1402 16.7652C20.0699 16.8355 19.9745 16.875 19.8751 16.875H16.8751C16.7756 16.875 16.6802 16.8355 16.6099 16.7652C16.5396 16.6948 16.5001 16.5995 16.5001 16.5C16.5001 16.4005 16.5396 16.3052 16.6099 16.2348C16.6802 16.1645 16.7756 16.125 16.8751 16.125H17.2501V15.75C17.2504 15.6506 17.29 15.5554 17.3602 15.4852C17.4305 15.4149 17.5257 15.3753 17.6251 15.375Z" fill="#8B03FB"/>
</g>
<defs>
<clipPath id="clip0_918_3067">
<rect width="24" height="24" fill="white"/>
</clipPath>
</defs>
</svg>
