<svg width="26" height="27" viewBox="0 0 26 27" fill="none" xmlns="http://www.w3.org/2000/svg">
<path d="M23.8327 6.33246C23.0184 6.68517 22.1572 6.91833 21.276 7.02469C22.2057 6.47017 22.9024 5.59781 23.2368 4.56942C22.3632 5.08867 21.4068 5.45451 20.4093 5.65104C19.7426 4.92914 18.8547 4.4486 17.885 4.2848C16.9152 4.12099 15.9184 4.28318 15.051 4.74593C14.1835 5.20868 13.4944 5.94581 13.0917 6.84172C12.689 7.73763 12.5956 8.74164 12.826 9.69629C11.0596 9.60708 9.33166 9.14786 7.75456 8.34844C6.17746 7.54903 4.78643 6.42731 3.67185 5.05615C3.28091 5.73775 3.07549 6.50965 3.07602 7.2951C3.07463 8.02452 3.25392 8.74297 3.59792 9.38647C3.94192 10.03 4.43995 10.5786 5.04768 10.9834C4.34132 10.9642 3.65006 10.775 3.03268 10.4318V10.4859C3.03798 11.5079 3.39668 12.4967 4.04811 13.2851C4.69954 14.0734 5.60371 14.6129 6.60768 14.8123C6.22121 14.9298 5.81996 14.9917 5.41602 14.9962C5.1364 14.9929 4.85747 14.9676 4.58185 14.9205C4.86775 15.7996 5.42102 16.568 6.16468 17.1185C6.90834 17.6691 7.80539 17.9745 8.73102 17.9923C7.16798 19.2202 5.23822 19.8904 3.24935 19.8959C2.88723 19.8971 2.5254 19.8754 2.16602 19.831C4.19665 21.1401 6.56306 21.835 8.98018 21.832C10.6482 21.8493 12.3029 21.5346 13.8477 20.9062C15.3925 20.2779 16.7965 19.3485 17.9775 18.1724C19.1585 16.9962 20.093 15.5969 20.7263 14.0562C21.3596 12.5154 21.6791 10.8641 21.666 9.19874C21.666 9.01487 21.666 8.82018 21.666 8.62548C22.5161 7.99253 23.2493 7.2166 23.8327 6.33246Z" fill="#8B03FB"/>
</svg>
