<svg width="40" height="40" viewBox="0 0 40 40" fill="none" xmlns="http://www.w3.org/2000/svg">
<g clip-path="url(#clip0_918_1022)">
<path d="M31.4692 0H8.53083C3.81938 0 0 3.81938 0 8.53083V31.4692C0 36.1806 3.81938 40 8.53083 40H31.4692C36.1806 40 40 36.1806 40 31.4692V8.53083C40 3.81938 36.1806 0 31.4692 0Z" fill="#F1F1F3"/>
<path fill-rule="evenodd" clip-rule="evenodd" d="M31.7157 15.2977V12.7724C31.7157 12.5139 31.6134 12.2659 31.4311 12.0826C31.2489 11.8993 31.0015 11.7955 30.743 11.7939H9.25777C8.99826 11.7939 8.74938 11.897 8.56588 12.0805C8.38238 12.264 8.2793 12.5129 8.2793 12.7724V27.2268C8.2793 27.7658 8.71873 28.2053 9.25777 28.2053H12.4275L12.5213 28.1994H30.743C31.0005 28.1979 31.247 28.0949 31.4291 27.9128C31.6112 27.7308 31.7141 27.4843 31.7157 27.2268V15.2977ZM17.6538 23.9633V15.1336L24.3508 19.5514L17.6538 23.9633Z" fill="#22013E"/>
</g>
<defs>
<clipPath id="clip0_918_1022">
<rect width="40" height="40" fill="white"/>
</clipPath>
</defs>
</svg>
