<svg width="99" height="36" viewBox="0 0 99 36" fill="none" xmlns="http://www.w3.org/2000/svg">
<path d="M32.2638 9.20741L32.2637 9.20748C31.8197 9.49569 31.4489 9.88337 31.1808 10.3395L29.5238 13.598C29.3036 14.0871 29.2017 14.6213 29.2267 15.1572L29.2267 15.1572C29.2515 15.6907 29.4014 16.2107 29.664 16.6754L31.6545 19.6903C31.9717 20.1155 32.3829 20.4618 32.8561 20.7019C33.3287 20.9417 33.8503 21.069 34.3801 21.0741L38.0212 20.8798C38.5474 20.8218 39.0528 20.6415 39.497 20.3531C39.941 20.0648 40.3114 19.6768 40.5784 19.22L42.2334 15.9657C42.4431 15.4807 42.5377 14.9535 42.5094 14.4258L32.2638 9.20741ZM32.2638 9.20741C32.708 8.91901 33.2132 8.73815 33.7394 8.67898L37.3798 8.4846C37.9092 8.48935 38.4304 8.61707 38.9022 8.85774C39.3739 9.09837 39.7832 9.44527 40.0978 9.87093L42.0695 12.9228M32.2638 9.20741L42.0695 12.9228M42.0695 12.9228C42.3304 13.3829 42.481 13.8973 42.5094 14.4257L42.0695 12.9228Z" stroke="#8B03FB" stroke-width="1.54286"/>
<path d="M13.0604 8.061L11.5024 7.833V6.883H14.0674C14.498 6.883 15.0427 6.85767 15.7014 6.807C16.3094 6.75633 16.759 6.731 17.0504 6.731C18.7984 6.731 20.046 7.00333 20.7934 7.548C21.5534 8.09267 21.9334 8.89067 21.9334 9.942C21.9334 10.8413 21.6737 11.614 21.1544 12.26C20.635 12.906 19.9257 13.3113 19.0264 13.476C20.2424 13.4507 21.1987 13.7357 21.8954 14.331C22.592 14.9263 22.9404 15.737 22.9404 16.763C22.9404 18.0423 22.4844 19.0873 21.5724 19.898C20.673 20.7087 19.1784 21.114 17.0884 21.114C16.6324 21.114 16.1954 21.095 15.7774 21.057C14.7894 21.019 14.2004 21 14.0104 21H11.4834V20.069L13.0604 19.879V8.061ZM15.0744 13.115C15.2517 13.1277 15.6127 13.134 16.1574 13.134H17.2024C18.089 13.134 18.7604 12.887 19.2164 12.393C19.6724 11.899 19.9004 11.196 19.9004 10.284C19.9004 9.39733 19.6724 8.75133 19.2164 8.346C18.7604 7.928 17.9814 7.719 16.8794 7.719C16.4234 7.719 15.9547 7.74433 15.4734 7.795L15.0744 7.833V13.115ZM15.0744 19.936C15.3657 20.0373 16.0244 20.088 17.0504 20.088C18.3297 20.088 19.2544 19.8283 19.8244 19.309C20.407 18.777 20.6984 18.017 20.6984 17.029C20.6984 16.0537 20.445 15.3443 19.9384 14.901C19.4444 14.4577 18.64 14.236 17.5254 14.236C16.2334 14.236 15.4164 14.2487 15.0744 14.274V19.936ZM25.8582 6.826L24.3192 6.617V5.8L27.3782 5.439H27.4162L27.8342 5.724V19.917L29.4492 20.069V21H24.3192V20.069L25.8582 19.898V6.826ZM44.0967 15.794C44.0967 14.7427 44.2994 13.7927 44.7047 12.944C45.1227 12.0953 45.7307 11.424 46.5287 10.93C47.3394 10.4233 48.3084 10.17 49.4357 10.17C49.9804 10.17 50.4491 10.2207 50.8417 10.322C51.2344 10.4233 51.7031 10.5627 52.2477 10.74L52.1717 13.666H50.9367L50.5187 11.728C50.4427 11.3733 49.9614 11.196 49.0747 11.196C48.1881 11.196 47.4851 11.557 46.9657 12.279C46.4591 12.9883 46.2057 14.0017 46.2057 15.319C46.2057 16.8137 46.4907 17.9537 47.0607 18.739C47.6434 19.5117 48.3971 19.898 49.3217 19.898C49.8537 19.898 50.3541 19.8157 50.8227 19.651C51.3041 19.4863 51.7157 19.29 52.0577 19.062L52.4187 19.822C52.0767 20.1767 51.5701 20.4997 50.8987 20.791C50.2401 21.0697 49.5687 21.209 48.8847 21.209C47.8461 21.209 46.9657 20.9747 46.2437 20.506C45.5344 20.0373 44.9961 19.3977 44.6287 18.587C44.2741 17.7637 44.0967 16.8327 44.0967 15.794ZM55.0729 6.826L53.5909 6.617V5.8L56.6119 5.439H56.6309L57.0489 5.724V15.015L57.0109 16.136L61.3999 11.595L59.9749 11.329V10.455H64.5729V11.329L63.0719 11.595L60.2789 14.312L63.8889 19.917L65.0669 20.069V21H60.4499V20.069L61.6469 19.898L58.9679 15.49L57.0109 17.428L57.0489 18.397V19.898L58.3979 20.069V21H53.8759V20.069L55.0729 19.898V6.826ZM64.5655 5.8L67.6055 5.439H67.6435L68.0805 5.724V11.443C68.4605 11.0757 68.9102 10.7717 69.4295 10.531C69.9615 10.2903 70.5505 10.17 71.1965 10.17C71.9565 10.17 72.6468 10.3537 73.2675 10.721C73.9008 11.0883 74.4012 11.6583 74.7685 12.431C75.1485 13.2037 75.3385 14.179 75.3385 15.357C75.3385 16.4463 75.1105 17.4343 74.6545 18.321C74.2112 19.2077 73.5715 19.9107 72.7355 20.43C71.8995 20.9493 70.9305 21.209 69.8285 21.209C68.9545 21.209 68.1565 21.1267 67.4345 20.962C66.7125 20.7847 66.2755 20.6263 66.1235 20.487V6.807L64.5655 6.598V5.8ZM70.4175 11.519C69.9362 11.519 69.4865 11.633 69.0685 11.861C68.6632 12.0763 68.3338 12.3233 68.0805 12.602V19.594C68.1565 19.7713 68.3718 19.917 68.7265 20.031C69.0938 20.1323 69.5055 20.183 69.9615 20.183C70.9368 20.183 71.7222 19.7903 72.3175 19.005C72.9128 18.2197 73.2105 17.0733 73.2105 15.566C73.2105 14.2107 72.9508 13.1973 72.4315 12.526C71.9122 11.8547 71.2408 11.519 70.4175 11.519ZM84.7573 21.19C84.0353 21.19 83.497 21.0253 83.1423 20.696C82.7877 20.3667 82.6103 19.803 82.6103 19.005V11.709H81.2423V10.854C81.3057 10.8413 81.483 10.797 81.7743 10.721C82.0657 10.645 82.262 10.5753 82.3633 10.512C82.566 10.398 82.7243 10.17 82.8383 9.828C82.9397 9.58733 83.06 9.201 83.1993 8.669C83.3387 8.137 83.421 7.82033 83.4463 7.719H84.5673L84.6053 10.455H87.7783V11.709H84.6053V17.542C84.6053 18.264 84.6243 18.7707 84.6623 19.062C84.713 19.3533 84.808 19.5433 84.9473 19.632C85.0993 19.7207 85.3527 19.765 85.7073 19.765C86.0493 19.765 86.423 19.7207 86.8283 19.632C87.2463 19.5433 87.5693 19.4483 87.7973 19.347L88.0823 20.202C87.7783 20.43 87.2843 20.6517 86.6003 20.867C85.929 21.0823 85.3147 21.19 84.7573 21.19Z" fill="#F1F1F3"/>
<path d="M77.2164 14.3918L77.2164 14.3918C77.1651 14.4933 77.1375 14.6054 77.1357 14.7195L77.1883 15.7153C77.2005 15.8307 77.2392 15.9416 77.3012 16.039L77.3012 16.039C77.3625 16.1354 77.4447 16.2158 77.5413 16.2744L78.4133 16.7139C78.517 16.758 78.6291 16.7777 78.7412 16.7715C78.8531 16.7654 78.9622 16.7338 79.0604 16.679L79.886 16.1373C79.976 16.0698 80.0496 15.982 80.1009 15.8805C80.1521 15.7791 80.1796 15.667 80.181 15.553L80.1286 14.5598C80.1148 14.4467 80.0755 14.3384 80.0141 14.2432L77.2164 14.3918ZM77.2164 14.3918C77.2677 14.2903 77.3413 14.2023 77.4312 14.1345L78.2565 13.593C78.3544 13.5382 78.4633 13.5068 78.5749 13.5009C78.6864 13.4951 78.7979 13.515 78.9007 13.5591L79.774 14.0103M77.2164 14.3918L79.774 14.0103M79.774 14.0103C79.8702 14.0683 79.9524 14.1478 80.014 14.2432L79.774 14.0103Z" stroke="#8B03FB" stroke-width="0.818182"/>
<path d="M77.2164 9.48258L77.2164 9.48264C77.1651 9.58411 77.1375 9.69625 77.1357 9.81033L77.1883 10.8061C77.2005 10.9216 77.2392 11.0324 77.3012 11.1298L77.3012 11.1299C77.3625 11.2262 77.4447 11.3066 77.5413 11.3652L78.4133 11.8047C78.517 11.8488 78.6291 11.8685 78.7412 11.8624C78.8531 11.8563 78.9622 11.8247 79.0604 11.7698L79.886 11.2282C79.976 11.1606 80.0496 11.0728 80.1009 10.9713C80.1521 10.8699 80.1796 10.7578 80.181 10.6438L80.1286 9.65064C80.1148 9.53753 80.0755 9.42925 80.0141 9.33406L77.2164 9.48258ZM77.2164 9.48258C77.2677 9.3811 77.3413 9.29315 77.4312 9.22527L78.2565 8.68381C78.3544 8.62903 78.4633 8.59757 78.5749 8.59173C78.6864 8.58589 78.7979 8.60579 78.9007 8.64996L79.774 9.10115M77.2164 9.48258L79.774 9.10115M79.774 9.10115C79.8702 9.15911 79.9524 9.23867 80.014 9.33403L79.774 9.10115Z" stroke="#8B03FB" stroke-width="0.818182"/>
<path d="M77.2164 19.3007L77.2164 19.3008C77.1651 19.4022 77.1375 19.5144 77.1357 19.6284L77.1883 20.6242C77.2005 20.7397 77.2392 20.8505 77.3012 20.9479L77.3012 20.948C77.3625 21.0443 77.4447 21.1247 77.5413 21.1833L78.4133 21.6229C78.517 21.6669 78.6291 21.6866 78.7412 21.6805C78.8531 21.6744 78.9622 21.6428 79.0604 21.5879L79.886 21.0463C79.976 20.9787 80.0496 20.8909 80.1009 20.7895C80.1521 20.688 80.1796 20.5759 80.181 20.4619L80.1286 19.4688C80.1148 19.3556 80.0755 19.2474 80.0141 19.1522L77.2164 19.3007ZM77.2164 19.3007C77.2677 19.1992 77.3413 19.1113 77.4312 19.0434L78.2565 18.5019C78.3544 18.4471 78.4633 18.4157 78.5749 18.4098C78.6864 18.404 78.7979 18.4239 78.9007 18.4681L79.774 18.9193M77.2164 19.3007L79.774 18.9193M79.774 18.9193C79.8702 18.9772 79.9524 19.0568 80.014 19.1521L79.774 18.9193Z" stroke="#8B03FB" stroke-width="0.818182"/>
<path d="M1.32623 29.548C1.37423 29.548 1.39823 29.574 1.39823 29.626V33.898C1.39823 33.938 1.39023 33.966 1.37423 33.982C1.35823 33.994 1.33023 34 1.29023 34H0.912234C0.876234 34 0.852234 33.994 0.840234 33.982C0.828234 33.97 0.822234 33.948 0.822234 33.916V29.632C0.822234 29.576 0.846234 29.548 0.894234 29.548H1.32623ZM2.52647 34C2.47047 34 2.44247 33.974 2.44247 33.922V30.898C2.44247 30.846 2.46447 30.82 2.50847 30.82H2.86847C2.91247 30.82 2.93447 30.842 2.93447 30.886V31.234C2.93447 31.254 2.93847 31.266 2.94647 31.27C2.95447 31.274 2.96847 31.268 2.98847 31.252C3.12047 31.148 3.24247 31.06 3.35447 30.988C3.47047 30.912 3.58847 30.856 3.70847 30.82C3.82847 30.78 3.95647 30.76 4.09247 30.76C4.40447 30.76 4.64247 30.844 4.80647 31.012C4.97447 31.18 5.05847 31.398 5.05847 31.666V33.904C5.05847 33.968 5.02847 34 4.96847 34H4.63247C4.60447 34 4.58447 33.994 4.57247 33.982C4.56047 33.966 4.55447 33.946 4.55447 33.922V31.78C4.55447 31.584 4.50447 31.432 4.40447 31.324C4.30447 31.212 4.14647 31.156 3.93047 31.156C3.81447 31.156 3.70447 31.176 3.60047 31.216C3.50047 31.252 3.39847 31.306 3.29447 31.378C3.19047 31.446 3.07447 31.534 2.94647 31.642V33.91C2.94647 33.97 2.91647 34 2.85647 34H2.52647ZM7.85438 31.522C7.77438 31.402 7.66238 31.304 7.51838 31.228C7.37438 31.152 7.20238 31.114 7.00238 31.114C6.78638 31.114 6.60638 31.16 6.46238 31.252C6.32238 31.344 6.25238 31.468 6.25238 31.624C6.25238 31.708 6.28438 31.788 6.34838 31.864C6.41238 31.936 6.54238 32.004 6.73838 32.068L7.50038 32.296C7.77638 32.372 7.97438 32.482 8.09438 32.626C8.21838 32.77 8.28038 32.936 8.28038 33.124C8.28038 33.312 8.22438 33.476 8.11238 33.616C8.00038 33.756 7.84638 33.866 7.65038 33.946C7.45438 34.022 7.23238 34.06 6.98438 34.06C6.66838 34.06 6.39238 33.998 6.15638 33.874C5.92038 33.746 5.75238 33.588 5.65238 33.4C5.64038 33.38 5.63438 33.362 5.63438 33.346C5.63438 33.33 5.64438 33.316 5.66438 33.304L5.89838 33.172C5.91838 33.16 5.93638 33.156 5.95238 33.16C5.96838 33.16 5.98038 33.166 5.98838 33.178C6.05638 33.282 6.13438 33.372 6.22238 33.448C6.31438 33.524 6.42238 33.584 6.54638 33.628C6.67438 33.672 6.82238 33.694 6.99038 33.694C7.14238 33.69 7.28038 33.668 7.40438 33.628C7.52838 33.588 7.62638 33.53 7.69838 33.454C7.77038 33.374 7.80638 33.282 7.80638 33.178C7.80638 33.07 7.76238 32.978 7.67438 32.902C7.58638 32.822 7.43438 32.752 7.21838 32.692L6.60038 32.518C6.30038 32.438 6.08838 32.33 5.96438 32.194C5.84438 32.058 5.78238 31.898 5.77838 31.714C5.77838 31.522 5.83038 31.356 5.93438 31.216C6.03838 31.072 6.18238 30.96 6.36637 30.88C6.55438 30.8 6.76838 30.76 7.00838 30.76C7.27638 30.76 7.51438 30.812 7.72238 30.916C7.93438 31.016 8.09438 31.15 8.20238 31.318C8.21438 31.334 8.22038 31.35 8.22038 31.366C8.22038 31.378 8.21238 31.39 8.19638 31.402L7.94438 31.54C7.92838 31.548 7.91238 31.552 7.89638 31.552C7.88438 31.548 7.87038 31.538 7.85438 31.522ZM9.78052 31.198C9.74852 31.198 9.73252 31.214 9.73252 31.246V33.148C9.73252 33.336 9.76452 33.462 9.82852 33.526C9.89252 33.59 9.98852 33.622 10.1165 33.622H10.5305C10.5505 33.622 10.5665 33.628 10.5785 33.64C10.5905 33.648 10.5965 33.664 10.5965 33.688L10.5905 33.892C10.5905 33.932 10.5665 33.958 10.5185 33.97C10.4785 33.978 10.4205 33.984 10.3445 33.988C10.2725 33.992 10.2005 33.996 10.1285 34C10.0605 34 10.0025 34 9.95452 34C9.70252 34 9.51852 33.942 9.40252 33.826C9.28652 33.706 9.22852 33.518 9.22852 33.262V31.258C9.22852 31.218 9.20852 31.198 9.16852 31.198H8.68852C8.64452 31.198 8.62252 31.176 8.62252 31.132V30.88C8.62252 30.84 8.64252 30.82 8.68252 30.82H9.19252C9.22052 30.82 9.23452 30.804 9.23452 30.772L9.30052 29.818C9.30452 29.766 9.32652 29.74 9.36652 29.74H9.66652C9.71452 29.74 9.73852 29.768 9.73852 29.824V30.772C9.73852 30.804 9.75452 30.82 9.78652 30.82H10.5425C10.5865 30.82 10.6085 30.838 10.6085 30.874V31.132C10.6085 31.176 10.5865 31.198 10.5425 31.198H9.78052ZM11.7648 33.898C11.7648 33.938 11.7568 33.966 11.7408 33.982C11.7288 33.994 11.7008 34 11.6568 34H11.3508C11.3148 34 11.2908 33.994 11.2788 33.982C11.2668 33.97 11.2608 33.948 11.2608 33.916V30.904C11.2608 30.848 11.2848 30.82 11.3328 30.82H11.6988C11.7428 30.82 11.7648 30.846 11.7648 30.898V33.898ZM11.7888 30.136C11.7888 30.212 11.7528 30.25 11.6808 30.25H11.3328C11.2968 30.25 11.2728 30.242 11.2608 30.226C11.2488 30.206 11.2428 30.18 11.2428 30.148V29.644C11.2428 29.58 11.2708 29.548 11.3268 29.548H11.7048C11.7608 29.548 11.7888 29.578 11.7888 29.638V30.136ZM13.5364 31.198C13.5044 31.198 13.4884 31.214 13.4884 31.246V33.148C13.4884 33.336 13.5204 33.462 13.5844 33.526C13.6484 33.59 13.7444 33.622 13.8724 33.622H14.2864C14.3064 33.622 14.3224 33.628 14.3344 33.64C14.3464 33.648 14.3524 33.664 14.3524 33.688L14.3464 33.892C14.3464 33.932 14.3224 33.958 14.2744 33.97C14.2344 33.978 14.1764 33.984 14.1004 33.988C14.0284 33.992 13.9564 33.996 13.8844 34C13.8164 34 13.7584 34 13.7104 34C13.4584 34 13.2744 33.942 13.1584 33.826C13.0424 33.706 12.9844 33.518 12.9844 33.262V31.258C12.9844 31.218 12.9644 31.198 12.9244 31.198H12.4444C12.4004 31.198 12.3784 31.176 12.3784 31.132V30.88C12.3784 30.84 12.3984 30.82 12.4384 30.82H12.9484C12.9764 30.82 12.9904 30.804 12.9904 30.772L13.0564 29.818C13.0604 29.766 13.0824 29.74 13.1224 29.74H13.4224C13.4704 29.74 13.4944 29.768 13.4944 29.824V30.772C13.4944 30.804 13.5104 30.82 13.5424 30.82H14.2984C14.3424 30.82 14.3644 30.838 14.3644 30.874V31.132C14.3644 31.176 14.3424 31.198 14.2984 31.198H13.5364ZM16.0967 33.664C16.2687 33.664 16.4327 33.618 16.5887 33.526C16.7487 33.43 16.9067 33.302 17.0627 33.142V30.91C17.0627 30.85 17.0947 30.82 17.1587 30.82H17.4887C17.5447 30.82 17.5727 30.848 17.5727 30.904L17.5607 33.922C17.5607 33.974 17.5387 34 17.4947 34H17.1467C17.1027 34 17.0807 33.978 17.0807 33.934V33.58C17.0807 33.56 17.0767 33.548 17.0687 33.544C17.0607 33.54 17.0467 33.546 17.0267 33.562C16.8067 33.75 16.6107 33.88 16.4387 33.952C16.2707 34.024 16.1027 34.06 15.9347 34.06C15.7507 34.06 15.5867 34.022 15.4427 33.946C15.2987 33.87 15.1847 33.764 15.1007 33.628C15.0167 33.488 14.9747 33.326 14.9747 33.142V30.916C14.9747 30.852 15.0047 30.82 15.0647 30.82H15.4007C15.4527 30.82 15.4787 30.848 15.4787 30.904V33.01C15.4787 33.206 15.5327 33.364 15.6407 33.484C15.7527 33.604 15.9047 33.664 16.0967 33.664ZM19.3313 31.198C19.2993 31.198 19.2833 31.214 19.2833 31.246V33.148C19.2833 33.336 19.3153 33.462 19.3793 33.526C19.4433 33.59 19.5393 33.622 19.6673 33.622H20.0813C20.1013 33.622 20.1173 33.628 20.1293 33.64C20.1413 33.648 20.1473 33.664 20.1473 33.688L20.1413 33.892C20.1413 33.932 20.1173 33.958 20.0693 33.97C20.0293 33.978 19.9713 33.984 19.8953 33.988C19.8233 33.992 19.7513 33.996 19.6793 34C19.6113 34 19.5533 34 19.5053 34C19.2533 34 19.0693 33.942 18.9533 33.826C18.8373 33.706 18.7793 33.518 18.7793 33.262V31.258C18.7793 31.218 18.7593 31.198 18.7193 31.198H18.2393C18.1953 31.198 18.1733 31.176 18.1733 31.132V30.88C18.1733 30.84 18.1933 30.82 18.2333 30.82H18.7433C18.7713 30.82 18.7853 30.804 18.7853 30.772L18.8513 29.818C18.8553 29.766 18.8773 29.74 18.9173 29.74H19.2173C19.2653 29.74 19.2893 29.768 19.2893 29.824V30.772C19.2893 30.804 19.3053 30.82 19.3373 30.82H20.0933C20.1373 30.82 20.1593 30.838 20.1593 30.874V31.132C20.1593 31.176 20.1373 31.198 20.0933 31.198H19.3313ZM21.0714 32.608C21.0714 32.804 21.1174 32.984 21.2094 33.148C21.3054 33.308 21.4314 33.436 21.5874 33.532C21.7474 33.628 21.9254 33.676 22.1214 33.676C22.3214 33.676 22.4994 33.636 22.6554 33.556C22.8114 33.472 22.9454 33.346 23.0574 33.178C23.0734 33.162 23.0854 33.154 23.0934 33.154C23.1054 33.15 23.1214 33.152 23.1414 33.16L23.3934 33.286C23.4294 33.306 23.4334 33.334 23.4054 33.37C23.2974 33.53 23.1774 33.662 23.0454 33.766C22.9174 33.866 22.7734 33.94 22.6134 33.988C22.4534 34.036 22.2734 34.06 22.0734 34.06C21.7774 34.06 21.5154 33.992 21.2874 33.856C21.0594 33.72 20.8794 33.53 20.7474 33.286C20.6154 33.042 20.5494 32.76 20.5494 32.44C20.5494 32.092 20.6154 31.794 20.7474 31.546C20.8834 31.294 21.0654 31.1 21.2934 30.964C21.5254 30.828 21.7834 30.76 22.0674 30.76C22.3594 30.76 22.6134 30.824 22.8294 30.952C23.0454 31.08 23.2134 31.266 23.3334 31.51C23.4534 31.754 23.5134 32.048 23.5134 32.392C23.5134 32.42 23.5094 32.448 23.5014 32.476C23.4974 32.504 23.4714 32.518 23.4234 32.518H21.1254C21.1094 32.518 21.0954 32.528 21.0834 32.548C21.0754 32.564 21.0714 32.584 21.0714 32.608ZM22.9074 32.188C22.9514 32.188 22.9794 32.184 22.9914 32.176C23.0034 32.164 23.0094 32.14 23.0094 32.104C23.0094 31.932 22.9714 31.772 22.8954 31.624C22.8234 31.472 22.7174 31.35 22.5774 31.258C22.4414 31.166 22.2754 31.12 22.0794 31.12C21.8634 31.12 21.6814 31.172 21.5334 31.276C21.3854 31.376 21.2734 31.508 21.1974 31.672C21.1214 31.836 21.0834 32.008 21.0834 32.188H22.9074Z" fill="#F1F1F3"/>
</svg>
